<?xml version="1.0" encoding="UTF-8"?>
<svg viewBox="0 0 5670 3107" xmlns="http://www.w3.org/2000/svg">
  <path d="m2386.3 1710.3l-679.42 782.28h-0.916c-1.441 4.076-5.226 6.993-9.681 6.993s-8.239-2.917-9.681-6.993h-0.662v-485.71c-504.95-9.988-911.22-421.74-911.22-928.23 0-512.76 416.38-928.44 930-928.44s930 415.68 930 928.44c0 243.97-94.267 465.96-248.42 631.66z" fill="#ed614e" fill-rule="evenodd"/>
  <path d="m2386.3 1560.3l-679.42 782.28h-0.916c-1.441 4.076-5.226 6.992-9.681 6.992s-8.239-2.916-9.681-6.992h-0.662v-485.71c-504.95-9.988-911.22-421.74-911.22-928.23 0-512.76 416.38-928.44 930-928.44s930 415.68 930 928.44c0 243.97-94.267 465.96-248.42 631.66z" fill="#ff6d59" fill-rule="evenodd"/>
  <path d="m2288.1 1479.2h-244.25c-3.314 0-6-2.686-6-6v-769.88c0-3.314 2.686-6 6-6h244.25c3.314 0 6 2.686 6 6v769.88c0 3.314-2.686 6-6 6zm-323.75 0h-244.56c-3.314 0-6-2.686-6-6v-378.94c0-3.313 2.686-5.999 6-5.999h244.56c3.313 0 6 2.686 6 5.999v378.94c0 3.314-2.687 6-6 6zm-316.88 0h-243.94c-3.313 0-6-2.686-6-6v-543.94c0-3.313 2.687-5.999 6-5.999h243.94c3.314 0 6 2.686 6 5.999v543.94c0 3.314-2.686 6-6 6zm-316.25 0h-244.56c-3.313 0-6-2.686-6-6v-243.62c0-3.314 2.687-6 6-6h244.56c3.313 0 6 2.686 6 6v243.62c0 3.314-2.687 6-6 6z" fill="#fff" fill-rule="evenodd"/>
  <path d="m5657 3011c-4.828 30.009-23.488 53.1-56.008 69.299-32.521 16.201-66.848 24.301-102.98 24.301-145.75 0-218.61-76.191-218.61-228.6l41.555-432c0-59.99-32.521-89.999-97.563-89.999-55.415 0-107.22 34.199-155.38 102.6l-61.428 579.6c-3.613 38.419-41.554 57.601-113.82 57.601h-50.588c-33.735 0-59.339-5.4-76.785-16.201-17.474-10.8-26.197-23.99-26.197-39.599l131.89-1247.4c3.614-38.391 41.554-57.6 113.82-57.6h50.588c33.706 0 59.31 5.399 76.785 16.2 17.445 10.799 26.196 24.018 26.196 39.6l-48.781 468c32.521-34.791 72.862-63.9 121.05-87.301 48.16-23.399 96.348-35.1 144.54-35.1 158.99 0 238.48 76.219 238.48 228.6l-45.168 471.6c0 39.601 18.067 59.4 54.201 59.4 9.627 0 20.467-1.799 32.521-5.399 12.027-3.601 18.661-5.401 19.874-5.401 9.626 0 14.454 9.001 14.454 27 0 18-4.235 51.61-12.647 100.8zm-1102.1-631.8c-2.428 0-18.688-5.991-48.781-18.001-30.121-11.981-63.235-17.999-99.369-17.999-68.654 0-102.98 24.019-102.98 71.999 0 25.201 16.854 46.8 50.588 64.8 33.707 18.001 70.461 33.301 110.21 45.9 39.748 12.601 76.474 38.11 110.21 76.501 33.707 38.418 50.588 88.199 50.588 149.4 0 110.42-34.327 196.82-102.98 259.2-68.655 62.409-158.4 93.6-269.2 93.6-45.789 0-90.336-4.81-133.7-14.401-84.322-19.181-126.47-50.99-126.47-95.399 0-108 13.24-162 39.748-162 2.399 0 13.24 5.399 32.521 16.2 55.386 30.009 110.8 44.999 166.22 44.999 79.496 0 119.24-29.981 119.24-89.999 0-25.201-11.152-45.901-33.424-62.101-22.302-16.2-49.092-29.699-80.399-40.499-31.335-10.801-62.642-23.682-93.948-38.7-31.336-14.991-58.125-38.982-80.399-72.001-22.302-32.99-33.424-74.08-33.424-123.3 0-106.79 33.113-189 99.369-246.6 66.227-57.601 152.36-86.401 258.36-86.401 65.041 0 125.26 8.719 180.67 26.101 55.387 17.409 83.109 45.309 83.109 83.7 0 19.209-11.744 46.518-35.231 81.9-23.487 35.409-43.672 53.1-60.525 53.1zm-693.77 701.1c-32.52 16.201-66.848 24.301-102.98 24.301-114.44 0-183.69-45-207.77-135-27.722 40.81-62.953 73.8-105.69 99.001-42.769 25.2-89.433 37.799-140.02 37.799-89.149 0-160.2-33.89-213.19-101.7-53.016-67.782-79.496-164.08-79.496-288.9 0-172.8 37.321-312.58 112.02-419.4 74.668-106.79 171.02-160.2 289.07-160.2 78.281 0 151.14 31.81 218.61 95.401 10.841-36 22.274-58.782 34.328-68.401 12.025-9.59 39.747-14.99 83.108-16.199h21.68c69.841 0 104.79 15.018 104.79 45l-32.521 313.2c-22.894 208.8-34.328 319.22-34.328 331.2 0 38.419 18.067 57.6 54.202 57.6 9.626 0 20.466-1.799 32.52-5.399 12.026-3.601 18.66-5.401 19.874-5.401 9.627 0 14.453 9.001 14.453 27 0 18-4.234 51.61-12.646 100.8-4.828 30.009-23.488 53.1-56.008 69.299zm-386.64-733.5c-61.428 0-108.71 30.319-141.83 90.901-33.142 60.609-49.685 150.92-49.685 270.9 0 120.01 40.934 180 122.86 180 49.374 0 96.348-34.791 140.92-104.4 14.454-163.18 22.866-253.49 25.294-270.9 2.399-17.381 9.627-56.7 21.681-117.9-37.349-32.4-77.096-48.601-119.24-48.601zm-610.64 547.2c9.627 0 20.467-1.799 32.521-5.399 12.026-3.601 18.66-5.401 19.874-5.401 9.626 0 14.453 9.001 14.453 27 0 18-4.234 51.61-12.647 100.8-4.827 30.009-23.487 53.1-56.007 69.299-32.521 16.201-66.849 24.301-102.98 24.301-114.44 0-183.69-46.181-207.77-138.6-57.815 92.419-137.03 138.6-237.58 138.6-100.58 0-178.86-33.891-234.87-101.7-56.008-67.782-84.012-164.08-84.012-288.9 0-172.8 38.845-312.58 116.53-419.4 77.688-106.79 178.55-160.2 302.62-160.2 68.655 0 133.08 24.61 193.32 73.8l45.167-417.6c3.614-38.391 41.555-57.6 113.82-57.6h50.588c33.706 0 59.311 5.399 76.785 16.2 17.446 10.799 26.197 24.018 26.197 39.6-73.482 685.21-110.21 1033.8-110.21 1045.8 0 39.601 18.067 59.4 54.201 59.4zm-388.44-549c-66.255 0-117.75 30.32-154.47 90.901-36.754 60.609-55.104 150.92-55.104 270.9 0 120.01 46.974 180 140.92 180 50.588 0 98.155-35.38 142.73-106.2 1.186-11.981 6.607-65.081 16.26-159.3 9.627-94.19 17.447-171.9 23.488-233.1-36.134-28.8-74.075-43.2-113.82-43.2zm-1344.1 379.8c-66.255 0-128.9-4.191-187.9-12.6 3.614 69.609 21.37 117.31 53.297 143.1 31.901 25.819 73.172 38.7 123.76 38.7s97.562-6.581 140.92-19.799c43.36-13.191 78.591-26.382 105.69-39.601 27.101-13.19 42.457-19.799 46.071-19.799 9.626 0 14.453 8.409 14.453 25.199 0 18.001-1.806 43.51-5.42 76.501-3.613 33.018-6.634 53.718-9.033 62.1-13.268 44.409-52.395 76.499-117.44 96.299-65.042 19.801-130.7 29.701-196.93 29.701-143.35 0-250.23-34.791-320.69-104.4-70.462-69.582-105.69-166.78-105.69-291.6 0-195.58 46.353-340.2 139.12-433.8 92.734-93.6 211.98-140.4 357.73-140.4 68.654 0 127.66 9 177.06 27 49.374 18 85.508 41.401 108.4 70.201 43.361 52.818 65.042 107.41 65.042 163.8 0 110.42-39.155 192.91-117.44 247.5-78.309 54.618-168.64 81.9-271.01 81.9zm19.874-379.8c-99.99 0-165.03 67.22-195.12 201.6h86.722c77.067 0 132.48-11.7 166.22-35.1 33.706-23.401 50.587-50.682 50.587-81.9 0-56.391-36.134-84.601-108.4-84.601zm-594.4 39.6c-3.614 0-12.647-2.7-27.101-8.1-14.454-5.399-30.121-8.1-46.974-8.1-59.029 0-111.42 30.601-157.18 91.8l-57.815 576c-3.613 38.419-41.554 57.601-113.82 57.601h-50.587c-33.734 0-59.339-5.4-76.785-16.201-17.474-10.8-26.197-23.99-26.197-39.599l61.428-590.4c4.799-46.8 7.226-89.382 7.226-127.8l-3.613-100.8c0-19.182 19.874-34.791 59.622-46.8 39.747-11.982 89.713-18 149.96-18 15.64 0 27.693 6.018 36.134 18 8.412 12.009 13.55 24.299 15.357 36.9 1.807 12.6 3.896 33.3 6.324 62.099 61.427-91.181 131.89-136.8 211.38-136.8 56.6 0 84.915 27.619 84.915 82.8 0 30.01-8.751 65.419-26.197 106.2-17.475 40.809-32.831 61.199-46.071 61.199z" fill="#607d8b" fill-rule="evenodd"/>
</svg>
